# xmcd CD database file
#
# Track frame offsets:
#	150
#	18622
#	33892
#	47475
#	53572
#	58520
#	62895
#	89027
#	105075
#	124425
#	143700
#	159990
#	162502
#
# Disc length: 2422 seconds
#
# Revision: 1
# Processed by: cddbd v1.5.2PL0 Copyright (c) Steve Scherf et al.
# Submitted via: CDex 1.70beta2
#
DISCID=a909740d
DTITLE=Moody Blues , The - To Our Children's, Children's, Children
DYEAR=1969
DGENRE=Progressive Rock
TTITLE0=Higher And Higher (G.Edge)
TTITLE1=Eyes Of A Child, Part 1 (J.Lodge)
TTITLE2=Floating (R.Thomas)
TTITLE3=Eyes Of A Child, Part 2  (J.Lodge)
TTITLE4=I Never Thought I'd Live To Be A Hundred (J.Hayward)
TTITLE5=Beyond (G.Edge)
TTITLE6=Out And In  (J.Lodge)
TTITLE7=Gypsy  (J.Hayward)
TTITLE8=Eternity Road (R.Thomas)
TTITLE9=Candle Of Life  (J.Lodge)
TTITLE10=Sun Is Still Shining
TTITLE11=I Never Thought I'd Live To Be A Million
TTITLE12=Watching And Waiting (Hayward-Thomas)
EXTD=YEAR: 1969
EXTT0=
EXTT1=
EXTT2=
EXTT3=
EXTT4=
EXTT5=
EXTT6=
EXTT7=
EXTT8=
EXTT9=
EXTT10=
EXTT11=
EXTT12=
PLAYORDER=
